<svg width="64" height="64" viewBox="0 0 64 64" fill="none" xmlns="http://www.w3.org/2000/svg">
<path d="M54.4 3.2002H9.60001C6.08001 3.2002 3.20001 6.08019 3.20001 9.60019V54.4002C3.20001 57.9234 6.08001 60.8002 9.60001 60.8002H32V38.4002H25.6V30.4802H32V23.9202C32 16.9954 35.8784 12.1314 44.0512 12.1314L49.8208 12.1378V20.4738H45.9904C42.8096 20.4738 41.6 22.861 41.6 25.0754V30.4834H49.8176L48 38.4002H41.6V60.8002H54.4C57.92 60.8002 60.8 57.9234 60.8 54.4002V9.60019C60.8 6.08019 57.92 3.2002 54.4 3.2002Z" fill="#3E5C6D"/>
</svg>
