<svg width="86" height="86" viewBox="0 0 86 86" fill="none" xmlns="http://www.w3.org/2000/svg">
<path d="M60.9167 10.75H25.0833C21.2819 10.75 17.6362 12.2601 14.9481 14.9481C12.2601 17.6362 10.75 21.2819 10.75 25.0833V60.9167C10.75 64.7181 12.2601 68.3638 14.9481 71.0519C17.6362 73.7399 21.2819 75.25 25.0833 75.25H60.9167C64.7181 75.25 68.3638 73.7399 71.0519 71.0519C73.7399 68.3638 75.25 64.7181 75.25 60.9167V25.0833C75.25 21.2819 73.7399 17.6362 71.0519 14.9481C68.3638 12.2601 64.7181 10.75 60.9167 10.75Z" stroke="#3E5C6D" stroke-width="8.33333" stroke-linejoin="round"/>
<path d="M43 57.3332C46.8014 57.3332 50.4472 55.8231 53.1352 53.135C55.8232 50.447 57.3333 46.8013 57.3333 42.9998C57.3333 39.1984 55.8232 35.5527 53.1352 32.8646C50.4472 30.1766 46.8014 28.6665 43 28.6665C39.1986 28.6665 35.5528 30.1766 32.8648 32.8646C30.1768 35.5527 28.6667 39.1984 28.6667 42.9998C28.6667 46.8013 30.1768 50.447 32.8648 53.135C35.5528 55.8231 39.1986 57.3332 43 57.3332Z" stroke="#3E5C6D" stroke-width="8.33333" stroke-linejoin="round"/>
<path d="M62.7083 26.8752C63.6587 26.8752 64.5701 26.4976 65.2421 25.8256C65.9141 25.1536 66.2917 24.2422 66.2917 23.2918C66.2917 22.3415 65.9141 21.43 65.2421 20.758C64.5701 20.086 63.6587 19.7085 62.7083 19.7085C61.758 19.7085 60.8465 20.086 60.1745 20.758C59.5025 21.43 59.125 22.3415 59.125 23.2918C59.125 24.2422 59.5025 25.1536 60.1745 25.8256C60.8465 26.4976 61.758 26.8752 62.7083 26.8752Z" fill="#3E5C6D"/>
</svg>
