<svg width="69" height="68" viewBox="0 0 69 68" fill="none" xmlns="http://www.w3.org/2000/svg">
<g clip-path="url(#clip0_149_82)">
<path d="M58.788 57.9462H48.5691V42.1702C48.5691 38.4064 48.4898 33.5648 43.2423 33.5648C37.9155 33.5648 37.1013 37.6584 37.1013 41.8914V57.9462H26.8859V25.5H36.6977V29.92H36.8322C38.2019 27.37 41.538 24.684 46.5198 24.684C56.8733 24.684 58.788 31.3956 58.788 40.137V57.9462ZM15.3422 21.0596C12.0508 21.0596 9.40815 18.4382 9.40815 15.2116C9.40815 11.985 12.0543 9.3636 15.3422 9.3636C16.9159 9.3636 18.4253 9.97973 19.5381 11.0764C20.651 12.1732 21.2761 13.6606 21.2761 15.2116C21.2761 16.7626 20.651 18.25 19.5381 19.3468C18.4253 20.4435 16.9159 21.0596 15.3422 21.0596ZM20.462 57.9496H10.2155V25.5H20.462V57.9496ZM63.9009 0H5.0922C2.277 0 0 2.193 0 4.896V63.104C0 65.807 2.277 68 5.0922 68H63.8871C66.6989 68 69 65.8104 69 63.104V4.896C69 2.1964 66.6989 0 63.8871 0H63.9009Z" fill="#3E5C6D"/>
</g>
<defs>
<clipPath id="clip0_149_82">
<rect width="69" height="68" fill="white"/>
</clipPath>
</defs>
</svg>
