<svg width="232" height="164" viewBox="0 0 232 164" fill="none" xmlns="http://www.w3.org/2000/svg">
<g clip-path="url(#clip0_149_89)">
<path d="M65.9003 35.3187C70.342 24.9284 72.5606 19.7315 74.5633 16.4324C76.8365 12.6871 80.4835 7.51428 79.5422 3.19969C79.4527 2.78811 79.5649 1.29956 75.9488 1.25634C73.9633 1.2326 71.9243 6.43876 68.5464 15.4085C63.5816 28.5918 61.0993 35.1835 61.0759 35.2575C56.1924 50.2856 55.7782 48.1077 48.6266 68.3392C43.586 82.601 44.1003 82.7983 37.3698 102.384C34.7399 110.042 32.7047 115.684 28.6387 126.963C19.8795 151.267 15.9631 160.941 16.1781 160.993C16.6618 161.116 37.4258 112.732 48.4633 81.6259C51.0761 74.2679 54.7699 64.4314 62.1618 44.7619C63.5818 40.9816 64.4818 38.6071 65.8914 35.3115L65.9003 35.3187Z" fill="#A3A3A3" stroke="#A3A3A3" stroke-miterlimit="10"/>
<path d="M71.7355 10.9592C72.6025 10.9696 72.6151 9.90803 71.7482 9.89766C70.8812 9.8873 70.8685 10.9488 71.7355 10.9592Z" fill="#A3A3A3"/>
<path d="M72.2226 10.0414L72.0803 9.92642C72.018 9.87259 71.9465 9.83635 71.8659 9.81415C71.7855 9.78134 71.7003 9.76263 71.606 9.76504C71.5116 9.76391 71.4261 9.77705 71.3449 9.80792C71.2593 9.82813 71.187 9.86266 71.1279 9.91504L71.0234 10.02C70.9595 10.1006 70.9314 10.1923 70.9303 10.2878L70.9511 10.4296C70.9815 10.5184 71.0389 10.597 71.1235 10.6652L71.2659 10.7802C71.3281 10.834 71.3996 10.8703 71.4802 10.8925C71.5606 10.9253 71.6458 10.944 71.7402 10.9416C71.8345 10.9427 71.92 10.9296 72.0012 10.8987C72.0868 10.8785 72.1591 10.8439 72.2182 10.7916L72.3228 10.6866C72.3866 10.606 72.4147 10.5143 72.4158 10.4188L72.395 10.277C72.3647 10.1882 72.3072 10.1096 72.2226 10.0414Z" fill="#A3A3A3"/>
<path d="M71.1532 10.0569C71.1453 9.97182 71.1409 9.95761 71.1447 10.0143C71.1445 10.0355 71.1442 10.0603 71.1439 10.0815C71.1584 10.0003 71.1631 9.98265 71.1536 10.025C71.1534 10.0427 71.1442 10.0567 71.1395 10.0744C71.1394 10.085 71.0931 10.2048 71.0841 10.2047L71.1208 10.1414C71.107 10.1625 71.0978 10.1836 71.0841 10.2047C70.9741 10.3874 70.864 10.5701 70.772 10.7565C70.6937 10.9149 70.6289 11.0769 70.573 11.2425C70.5496 11.3166 70.5262 11.3941 70.4984 11.4681C70.4937 11.4822 70.4524 11.5561 70.4568 11.5632C70.5026 11.4894 70.5073 11.4753 70.4752 11.528C70.4615 11.5491 70.4478 11.5666 70.4341 11.5842C70.256 11.8227 70.3462 12.1741 70.668 12.3124C70.9898 12.4508 71.3994 12.3884 71.5912 12.1324C71.7282 11.9464 71.798 11.742 71.8678 11.5376C71.9239 11.3613 71.9978 11.1852 72.0852 11.0164C72.0945 10.9953 72.1082 10.9707 72.122 10.9496C72.1495 10.8969 72.145 10.9039 72.1082 10.9742C72.1177 10.9319 72.1632 10.8829 72.1861 10.8442C72.2503 10.7388 72.3099 10.6369 72.3696 10.5279C72.4983 10.2853 72.5282 10.0414 72.4683 9.78592C72.4087 9.51271 71.9706 9.32699 71.6417 9.40445C71.2678 9.49553 71.0984 9.75893 71.1622 10.0534L71.1532 10.0569Z" fill="#A3A3A3"/>
<path d="M71.2506 12.4327C71.3193 11.57 71.953 10.8026 72.4203 10.0473C72.9517 9.18661 73.4295 8.30052 73.8536 7.40316C73.9781 7.13569 73.7213 6.82119 73.3898 6.74291C73.0179 6.65707 72.6833 6.83356 72.5543 7.10451C72.1301 8.00895 71.6433 8.89494 71.0984 9.759C70.5534 10.6231 69.982 11.4443 69.903 12.4166C69.8454 13.0989 71.1931 13.1115 71.2506 12.4327Z" fill="#A3A3A3"/>
<path d="M71.4304 10.5485C72.2973 10.5589 72.31 9.49738 71.4431 9.48702C70.5761 9.47666 70.5634 10.5382 71.4304 10.5485Z" fill="#A3A3A3"/>
<path d="M71.5724 10.6955C72.4394 10.7059 72.4521 9.64436 71.5851 9.63399C70.7181 9.62363 70.7054 10.6852 71.5724 10.6955Z" fill="#A3A3A3"/>
<path d="M70.9601 10.0511C70.8808 10.2979 70.7791 10.5374 70.6505 10.7729L70.7194 10.6464C70.6689 10.7342 70.6184 10.8256 70.5634 10.9134L71.7893 11.3386C71.9138 11.0747 72.0472 10.8144 72.1895 10.5578L72.1206 10.6843C72.2676 10.4171 72.4235 10.1536 72.5883 9.89367C72.6708 9.76371 72.7083 9.62968 72.6606 9.48401C72.6172 9.35963 72.502 9.22378 72.3545 9.16185C72.055 9.03087 71.6007 9.07852 71.4313 9.34192C71.0788 9.89332 70.7665 10.4594 70.4946 11.0365C70.4393 11.1526 70.473 11.3406 70.557 11.4477C70.6367 11.5478 70.7392 11.6198 70.8779 11.6675C71.1642 11.7664 71.5739 11.697 71.7205 11.4617C71.9449 11.1069 72.138 10.7341 72.2594 10.3498C72.3435 10.0818 72.1586 9.76113 71.7956 9.68955C71.4325 9.61797 71.0534 9.76207 70.9601 10.0511Z" fill="#A3A3A3"/>
<path d="M71.4446 8.98803C71.4039 9.3839 71.1388 9.76294 70.9458 10.1251C70.7344 10.5154 70.541 10.9095 70.3566 11.3072C69.9785 12.1166 69.6362 12.9371 69.2985 13.7576C69.0301 14.4091 70.325 14.7042 70.5933 14.0562C70.9449 13.2075 71.2965 12.3553 71.6929 11.5178C71.8865 11.106 72.0935 10.698 72.314 10.2937C72.5437 9.8682 72.7462 9.47072 72.7967 9.00419C72.8271 8.7179 72.4751 8.46951 72.1292 8.46537C71.7429 8.46075 71.4794 8.70179 71.4491 8.98808L71.4446 8.98803Z" fill="#A3A3A3"/>
<path d="M70.617 13.9469C70.5134 13.2202 70.931 12.4891 71.2444 11.824C71.5809 11.1167 71.962 10.4276 72.3924 9.75327C72.5572 9.4969 72.4891 9.18112 72.1585 9.02499C71.8636 8.88345 71.4001 8.94869 71.2353 9.20506C70.7546 9.96018 70.323 10.7336 69.9451 11.5289C69.5672 12.3241 69.1489 13.1154 69.2649 13.9343C69.3064 14.2179 69.5371 14.4684 69.9324 14.4731C70.2603 14.477 70.654 14.2375 70.6125 13.9504L70.617 13.9469Z" fill="#A3A3A3"/>
<path d="M71.3405 10.9226C72.2075 10.9329 72.2202 9.87141 71.3532 9.86104C70.4863 9.85068 70.4736 10.9122 71.3405 10.9226Z" fill="#A3A3A3"/>
<path d="M72.079 16.6064C74.952 9.96364 76.9305 4.4832 76.4983 4.36547C76.0661 4.24774 73.3868 9.5373 70.5139 16.18C67.641 22.8228 65.6624 28.3032 66.0946 28.4209C66.5268 28.5387 69.2061 23.2491 72.079 16.6064Z" fill="white" stroke="#A3A3A3" stroke-miterlimit="10"/>
<path d="M1.34851 77.8354C13.9526 69.7687 19.0872 57.0369 23.1293 45.113C25.4206 38.3492 27.5465 31.5091 30.962 25.0312C32.6674 21.7993 34.6736 18.5923 37.2417 15.7281C39.8098 12.864 43.1955 10.7598 47.5468 9.81035C51.5602 8.93112 55.8013 8.93227 59.9422 9.04547C64.0831 9.15867 68.895 9.14187 72.5323 11.1707C77.9324 14.1832 79.1297 20.0155 81.5603 24.5142C82.8218 26.8508 84.4663 29.0929 86.9715 30.7401C89.4767 32.3874 92.6857 33.4131 95.9428 33.7918C103.336 34.6552 110.387 32.2799 115.731 28.366C118.545 26.3011 120.906 23.8591 122.874 21.2603C125.024 18.4195 125.834 15.2653 126.313 12.0046C126.626 9.86734 125.978 7.33634 123.432 6.14867C120.885 4.961 118.506 6.28089 117.857 8.30802C117.358 9.87687 117.289 11.5146 117.175 13.1234L117.522 13.0143C115.946 11.449 113.804 10.2909 111.366 9.7274C109.597 9.31696 106.892 8.9272 105.374 9.99905C104.11 10.8899 104.268 12.3923 104.775 13.5485C105.444 15.0818 106.856 16.4435 108.285 17.5859C114.764 22.7665 124.955 24.1305 133.734 23.0039C145.352 21.5148 155.368 16.1174 165.461 11.7365C170.817 9.41175 176.391 7.30193 182.319 6.03861C188.588 4.70506 194.87 4.59967 201.195 5.83249C207.344 7.02784 213.503 9.01955 219.938 8.50193C224.651 8.12298 229.419 6.47421 231.613 2.9969C231.727 2.81424 231.383 2.64734 231.264 2.83348C229.222 6.06842 224.903 7.67301 220.513 8.13368C215.083 8.70225 209.775 7.37186 204.6 6.22355C199.165 5.01905 193.837 4.26527 188.192 4.80295C182.889 5.30933 177.791 6.68166 172.95 8.40033C155.3 14.6656 136.476 28.161 115.785 21.1756C113.445 20.3867 111.234 19.3163 109.35 17.9596C107.59 16.6929 105.781 15.0893 105.075 13.2654C104.752 12.4335 104.598 11.4089 105.214 10.6412C106.167 9.45645 108.335 9.59562 109.869 9.79444C112.785 10.1726 115.398 11.4283 117.228 13.2479C117.343 13.3625 117.564 13.2661 117.575 13.1388C117.695 11.3885 117.695 9.4987 118.447 7.83024C119.116 6.34835 121.129 5.60446 122.944 6.31271C126.544 7.71823 126.079 11.2834 125.581 13.8538C125.261 15.5027 124.837 17.1503 124.063 18.7088C123.29 20.2673 122.209 21.5779 121.075 22.895C118.915 25.4137 116.331 27.7326 113.276 29.6001C107.343 33.2202 99.4528 34.8211 92.1996 32.7384C88.7386 31.7451 85.8626 29.9235 83.9062 27.4618C82.2287 25.3503 81.1743 22.9843 80.1149 20.6536C78.2106 16.4691 76.0567 11.7437 70.4089 9.90314C66.7034 8.69454 62.385 8.77386 58.4502 8.70559C54.7625 8.64382 51.001 8.73333 47.4335 9.51526C43.8659 10.2972 40.7067 11.8696 38.2895 14.1375C35.8723 16.4054 33.8837 19.2694 32.2154 22.031C28.5899 28.0322 26.3027 34.4598 24.137 40.8677C20.1315 52.7283 16.196 65.5028 5.14692 74.6533C3.86731 75.7139 2.4987 76.7026 1.05898 77.6267C0.855271 77.7552 1.14005 77.9851 1.34376 77.8566L1.34851 77.8354Z" fill="#E94B26"/>
<path d="M70.4904 10.2613C71.1262 10.4424 71.7343 10.6797 72.3014 10.9731C72.3327 10.9876 72.3727 11.0235 72.4086 11.0275L72.4308 11.0454C72.5077 11.0003 72.5171 10.9721 72.4588 10.9644C72.4188 10.9249 72.2889 10.8951 72.2353 10.8697C72.0788 10.8041 71.9269 10.735 71.7749 10.666C71.623 10.5969 71.4577 10.5171 71.3059 10.441C71.2657 10.4228 71.23 10.4011 71.1898 10.383C71.1719 10.3721 71.1006 10.3253 71.0916 10.3287L71.0459 10.3919L71.1088 10.3926C71.1583 10.3897 71.2077 10.3867 71.2571 10.3873C71.3785 10.3852 71.4566 10.241 71.3269 10.19C71.2151 10.1462 71.1033 10.1023 70.9915 10.0621C70.8931 10.022 70.7903 9.97828 70.6826 9.96284C70.5077 9.93598 70.3048 10.0008 70.2715 10.1526C70.2385 10.2866 70.467 10.3389 70.5314 10.2123C70.559 10.156 70.5867 10.0997 70.6143 10.0399L70.3496 10.0084C70.3395 10.1038 70.3294 10.1993 70.3238 10.2947C70.3185 10.3619 70.3176 10.4362 70.3888 10.4866C70.5492 10.6018 70.7799 10.4701 70.9289 10.4117C71.1365 10.3292 71.3442 10.2468 71.5518 10.1643C71.7459 10.0853 71.9721 9.96056 72.1968 9.94909C72.3991 9.93735 72.5459 10.063 72.6026 10.2052C72.668 10.3723 72.6343 10.5595 72.5964 10.7254C72.5205 11.0642 72.3908 11.3917 72.1358 11.6754C72.0356 11.7874 72.2679 11.8963 72.3681 11.7843C72.5639 11.5637 72.6972 11.3105 72.7857 11.0497C72.8742 10.7888 72.9541 10.489 72.8855 10.2157C72.8299 9.98497 72.6124 9.76649 72.3027 9.73802C72.1367 9.72188 71.9744 9.76594 71.8255 9.82079C71.6495 9.88592 71.4734 9.95814 71.3018 10.0304C71.1077 10.1059 70.9136 10.185 70.7195 10.2605C70.6969 10.2709 70.5798 10.3013 70.5706 10.3189C70.5705 10.326 70.5835 10.3651 70.5972 10.3476C70.6063 10.3371 70.5978 10.298 70.6024 10.2839C70.6125 10.1956 70.6181 10.1036 70.6281 10.0153C70.6386 9.888 70.4141 9.87823 70.3634 9.9838C70.3358 10.0401 70.3082 10.0964 70.2805 10.1562L70.5403 10.2159C70.5688 10.0889 71.1138 10.3467 71.1988 10.3795L71.2686 10.1822C71.1382 10.1842 70.9184 10.1603 70.8452 10.2727C70.7628 10.3991 70.9143 10.5035 71.0393 10.5652C71.3743 10.7355 71.7183 10.8953 72.0669 11.0446C72.201 11.1028 72.3749 11.2111 72.5369 11.1918C72.7034 11.1725 72.7501 11.0245 72.6524 10.9277C72.5547 10.831 72.3669 10.758 72.2284 10.6926C72.0676 10.6164 71.9067 10.5437 71.7413 10.4745C71.3613 10.3178 70.972 10.1822 70.5691 10.0676C70.4034 10.0197 70.3336 10.2241 70.4947 10.272L70.4904 10.2613Z" fill="#A3A3A3"/>
</g>
<defs>
<clipPath id="clip0_149_89">
<rect width="229.726" height="160.995" fill="white" transform="translate(1.92432) rotate(0.684842)"/>
</clipPath>
</defs>
</svg>
